<svg width="15" height="15" viewBox="0 0 15 15" fill="none" xmlns="http://www.w3.org/2000/svg">
<g clip-path="url(#clip0_6_19)">
<path fill-rule="evenodd" clip-rule="evenodd" d="M0 3.75C0 1.67893 1.67893 0 3.75 0H11.25C13.3211 0 15 1.67893 15 3.75V11.25C15 13.3211 13.3211 15 11.25 15H3.75C1.67893 15 0 13.3211 0 11.25V3.75ZM7.5 3.48214C7.9438 3.48214 8.30357 3.84192 8.30357 4.28571V6.69643H10.7143C11.1581 6.69643 11.5179 7.0562 11.5179 7.5C11.5179 7.9438 11.1581 8.30357 10.7143 8.30357H8.30357V10.7143C8.30357 11.1581 7.9438 11.5179 7.5 11.5179C7.0562 11.5179 6.69643 11.1581 6.69643 10.7143V8.30357H4.28571C3.84192 8.30357 3.48214 7.9438 3.48214 7.5C3.48214 7.0562 3.84192 6.69643 4.28571 6.69643H6.69643V4.28571C6.69643 3.84192 7.0562 3.48214 7.5 3.48214Z" fill="#B0A0A0"/>
</g>
<defs>
<clipPath id="clip0_6_19">
<rect width="15" height="15" fill="white"/>
</clipPath>
</defs>
</svg>
