<svg width="15" height="15" viewBox="0 0 15 15" fill="none" xmlns="http://www.w3.org/2000/svg">
<path d="M10.1958 6.21837C10.5864 5.82785 10.5864 5.19468 10.1958 4.80416C9.80532 4.41363 9.17216 4.41363 8.78163 4.80416L10.1958 6.21837ZM4.80416 8.78163C4.41363 9.17216 4.41363 9.80532 4.80416 10.1958C5.19468 10.5864 5.82784 10.5864 6.21837 10.1958L4.80416 8.78163ZM8.78163 10.1958C9.17216 10.5864 9.80532 10.5864 10.1958 10.1958C10.5864 9.80532 10.5864 9.17216 10.1958 8.78163L8.78163 10.1958ZM6.21837 4.80416C5.82784 4.41363 5.19468 4.41363 4.80416 4.80416C4.41363 5.19468 4.41363 5.82784 4.80416 6.21837L6.21837 4.80416ZM12.125 7.5C12.125 10.0543 10.0543 12.125 7.5 12.125V14.125C11.1589 14.125 14.125 11.1589 14.125 7.5H12.125ZM7.5 12.125C4.94568 12.125 2.875 10.0543 2.875 7.5H0.875C0.875 11.1589 3.84111 14.125 7.5 14.125V12.125ZM2.875 7.5C2.875 4.94568 4.94568 2.875 7.5 2.875V0.875C3.84111 0.875 0.875 3.84111 0.875 7.5H2.875ZM7.5 2.875C10.0543 2.875 12.125 4.94568 12.125 7.5H14.125C14.125 3.84111 11.1589 0.875 7.5 0.875V2.875ZM8.78163 4.80416L6.79289 6.79289L8.20711 8.20711L10.1958 6.21837L8.78163 4.80416ZM6.79289 6.79289L4.80416 8.78163L6.21837 10.1958L8.20711 8.20711L6.79289 6.79289ZM10.1958 8.78163L8.20711 6.79289L6.79289 8.20711L8.78163 10.1958L10.1958 8.78163ZM8.20711 6.79289L6.21837 4.80416L4.80416 6.21837L6.79289 8.20711L8.20711 6.79289Z" fill="#B0A0A0"/>
</svg>
