<svg width="24" height="24" viewBox="0 0 24 24" fill="none" xmlns="http://www.w3.org/2000/svg">
<path d="M12 22C17.5228 22 22 17.5228 22 12C22 6.47715 17.5228 2 12 2C6.47715 2 2 6.47715 2 12C2 17.5228 6.47715 22 12 22Z" stroke="#FF0606" stroke-width="1.5" stroke-linecap="round" stroke-linejoin="round"/>
<path d="M12.33 17.45C12.15 17.51 11.84 17.51 11.66 17.45C10.1 16.92 6.60001 14.69 6.60001 10.91C6.60001 9.24 7.94001 7.89001 9.60001 7.89001C10.58 7.89001 11.45 8.36001 12 9.10001C12.54 8.37001 13.42 7.89001 14.4 7.89001C16.06 7.89001 17.4 9.24 17.4 10.91C17.4 14.69 13.9 16.92 12.33 17.45Z" stroke="#FF0606" stroke-width="1.5" stroke-linecap="round" stroke-linejoin="round"/>
<path fill-rule="evenodd" clip-rule="evenodd" d="M11.9923 8.60647C11.0269 7.64462 10.0196 7.16763 9.05217 7.09623C7.95778 7.01546 6.99233 7.46021 6.29612 8.16224C4.92756 9.54224 4.50998 12.0371 6.21889 13.7538C6.22374 13.7587 6.22869 13.7635 6.23373 13.7681L11.6522 18.7802C11.8438 18.9575 12.1396 18.9575 12.3312 18.7802L17.7497 13.7681L17.7613 13.757C19.4954 12.0465 19.076 9.55162 17.7018 8.17166C17.0031 7.47002 16.0345 7.02512 14.938 7.10377C13.9684 7.17333 12.9587 7.64743 11.9923 8.60647ZM11.6515 10.5878C11.5561 10.3665 11.3419 10.2197 11.1011 10.2106C10.8603 10.2015 10.6357 10.3317 10.5239 10.5452L9.66809 12.179H8.51501C8.16984 12.179 7.89001 12.4588 7.89001 12.804C7.89001 13.1491 8.16984 13.429 8.51501 13.429H10.0463C10.2788 13.429 10.492 13.2999 10.5999 13.094L11.0227 12.2869L12.0661 14.7076C12.1526 14.9084 12.3378 15.0494 12.5545 15.0793C12.7711 15.1093 12.9876 15.0238 13.1254 14.854L14.2815 13.429H15.4838C15.8289 13.429 16.1088 13.1491 16.1088 12.804C16.1088 12.4588 15.8289 12.179 15.4838 12.179H13.9838C13.7954 12.179 13.6171 12.2639 13.4984 12.4102L12.8052 13.2646L11.6515 10.5878Z" fill="#FF0606"/>
</svg>
