<svg width="23" height="23" viewBox="0 0 24 24" fill="none" xmlns="http://www.w3.org/2000/svg">
<g clip-path="url(#clip0_430_27856)">
<path d="M22.0785 8.98553V16.5439C22.0785 17.7816 21.4155 18.9309 20.3436 19.5607L13.7797 23.351C12.7078 23.9698 11.3818 23.9698 10.2988 23.351L3.73491 19.5607C2.66302 18.9419 2 17.7926 2 16.5439V8.98553C2 7.74789 2.66302 6.59861 3.73491 5.96873L10.2988 2.17847C11.3707 1.55965 12.6967 1.55965 13.7797 2.17847L20.3436 5.96873C21.4155 6.59861 22.0785 7.73684 22.0785 8.98553Z" stroke="#C4C4C4" stroke-opacity="0.88" stroke-width="1.5" stroke-linecap="round" stroke-linejoin="round"/>
<path d="M12.0448 11.6594C13.4668 11.6594 14.6196 10.5067 14.6196 9.08469C14.6196 7.66271 13.4668 6.51001 12.0448 6.51001C10.6228 6.51001 9.47009 7.66271 9.47009 9.08469C9.47009 10.5067 10.6228 11.6594 12.0448 11.6594Z" stroke="#C4C4C4" stroke-opacity="0.88" stroke-width="1.5" stroke-linecap="round" stroke-linejoin="round"/>
<path d="M16.465 17.914C16.465 15.9249 14.487 14.3116 12.0449 14.3116C9.60277 14.3116 7.62476 15.9249 7.62476 17.914" stroke="#C4C4C4" stroke-opacity="0.88" stroke-width="1.5" stroke-linecap="round" stroke-linejoin="round"/>
</g>
<defs>
<clipPath id="clip0_430_27856">
<rect width="24" height="24" fill="white" transform="translate(0 0.714355)"/>
</clipPath>
</defs>
</svg>
