<svg width="24" height="24" viewBox="0 0 24 24" fill="none" xmlns="http://www.w3.org/2000/svg">
<path d="M18.1147 0C18.8219 0.000143084 19.5 0.266402 20 0.74021L23.2187 3.78947C23.7188 4.26314 23.9998 4.90561 24 5.57558V20.2105C24 21.2156 23.5786 22.1794 22.8284 22.8901C22.0783 23.6008 21.0609 24 20 24H4C2.93913 24 1.92172 23.6008 1.17157 22.8901C0.421427 22.1794 0 21.2156 0 20.2105V5.57558C0.000151033 4.90561 0.281202 4.26314 0.781333 3.78947L4 0.74021C4.49998 0.266402 5.17815 0.000143084 5.88533 0H18.1147ZM21.3333 7.57895H2.66667V20.2105C2.66667 20.5455 2.80714 20.8668 3.05719 21.1037C3.30724 21.3406 3.64638 21.4737 4 21.4737H20C20.3536 21.4737 20.6928 21.3406 20.9428 21.1037C21.1929 20.8668 21.3333 20.5455 21.3333 20.2105V7.57895ZM16 10.1053C16.3536 10.1053 16.6928 10.2383 16.9428 10.4752C17.1929 10.7121 17.3333 11.0334 17.3333 11.3684C17.3333 12.7085 16.7714 13.9936 15.7712 14.9412C14.771 15.8887 13.4145 16.4211 12 16.4211C10.5855 16.4211 9.22896 15.8887 8.22876 14.9412C7.22857 13.9936 6.66667 12.7085 6.66667 11.3684C6.66667 11.0334 6.80714 10.7121 7.05719 10.4752C7.30724 10.2383 7.64638 10.1053 8 10.1053C8.35362 10.1053 8.69276 10.2383 8.94281 10.4752C9.19286 10.7121 9.33333 11.0334 9.33333 11.3684C9.33024 12.024 9.59625 12.655 10.0752 13.1282C10.5541 13.6014 11.2084 13.8797 11.8999 13.9043C12.5914 13.9289 13.2659 13.6978 13.781 13.26C14.296 12.8222 14.6112 12.2118 14.66 11.5579L14.6667 11.3684C14.6667 11.0334 14.8071 10.7121 15.0572 10.4752C15.3072 10.2383 15.6464 10.1053 16 10.1053ZM18.1147 2.52632H5.88533L3.21867 5.05263H20.7813L18.1147 2.52632Z" fill="#000000"/>
</svg>
