<svg width="15" height="15" viewBox="0 0 15 15" fill="none" xmlns="http://www.w3.org/2000/svg">
<path d="M11.25 11.25V3.75H9.375H5.625H3.75V11.25C3.75 11.9404 4.30964 12.5 5 12.5H10C10.6904 12.5 11.25 11.9404 11.25 11.25Z" fill="#B0A0A0"/>
<path d="M11.25 3.75V11.25C11.25 11.9404 10.6904 12.5 10 12.5H5C4.30964 12.5 3.75 11.9404 3.75 11.25V3.75M11.25 3.75H9.375M11.25 3.75H12.5M3.75 3.75H2.5M3.75 3.75H5.625M9.375 3.75V3.125C9.375 2.43464 8.81536 1.875 8.125 1.875H6.875C6.18464 1.875 5.625 2.43464 5.625 3.125V3.75M9.375 3.75H5.625" stroke="#B0A0A0" stroke-width="2" stroke-linecap="round" stroke-linejoin="round"/>
</svg>
