<svg width="150" height="44" viewBox="0 0 150 44" fill="none" xmlns="http://www.w3.org/2000/svg">
<path d="M10.78 3.08C8.81467 3.90133 7.28933 5.13333 6.204 6.776C5.148 8.41867 4.62 10.3987 4.62 12.716C4.62 13.8013 4.72267 14.564 4.928 15.004C5.13333 15.4147 5.236 15.6493 5.236 15.708C3.652 15.708 2.464 15.3853 1.672 14.74C0.909333 14.0653 0.528 12.9653 0.528 11.44C0.528 9.56267 1.29067 7.744 2.816 5.984C4.37067 4.19467 6.35067 2.75733 8.756 1.672C11.1613 0.557331 13.5667 -2.6226e-06 15.972 -2.6226e-06C16.3827 -2.6226e-06 16.9693 0.0293312 17.732 0.0879989L14.916 13.2H21.384L24.2 0.0879989H30.536L23.54 33H17.204L20.724 16.456H14.256L10.736 33H4.4L10.78 3.08ZM36.6097 8.624C35.6417 8.624 34.8204 8.28667 34.1457 7.612C33.4711 6.93733 33.1337 6.116 33.1337 5.148C33.1337 4.18 33.4711 3.35867 34.1457 2.684C34.8204 1.98 35.6417 1.628 36.6097 1.628C37.5777 1.628 38.3991 1.98 39.0737 2.684C39.7777 3.35867 40.1297 4.18 40.1297 5.148C40.1297 6.116 39.7777 6.93733 39.0737 7.612C38.3991 8.28667 37.5777 8.624 36.6097 8.624ZM33.6177 33.264C32.2097 33.264 31.0657 32.824 30.1857 31.944C29.3351 31.064 28.9097 29.744 28.9097 27.984C28.9097 27.2507 29.0271 26.2973 29.2617 25.124L32.2537 11H38.5897L35.4217 25.96C35.3044 26.4 35.2457 26.8693 35.2457 27.368C35.2457 27.9547 35.3777 28.38 35.6417 28.644C35.9351 28.8787 36.4044 28.996 37.0497 28.996C37.9004 28.996 38.6924 28.644 39.4257 27.94C40.1591 27.2067 40.6871 26.268 41.0097 25.124H42.8577C41.7724 28.292 40.3791 30.448 38.6777 31.592C36.9764 32.7067 35.2897 33.264 33.6177 33.264ZM45.1282 33.264C43.6322 33.264 42.5175 32.8093 41.7842 31.9C41.0802 30.9907 40.7282 29.788 40.7282 28.292C40.7282 27.5293 40.8162 26.752 40.9922 25.96L43.8082 12.76H42.3562L42.7082 11H44.1602L45.4802 4.928L51.9922 4.048C51.7282 5.16267 51.5815 5.82267 51.5522 6.028C51.3469 6.84933 50.9949 8.50667 50.4962 11H53.1362L52.7842 12.76H50.1442L47.3282 25.96C47.1815 26.6053 47.1082 27.1187 47.1082 27.5C47.1082 28.556 47.6215 29.084 48.6482 29.084C49.1762 29.084 49.5575 29.04 49.7922 28.952C49.2055 30.6533 48.5162 31.7973 47.7242 32.384C46.9322 32.9707 46.0669 33.264 45.1282 33.264ZM64.3562 13.376H61.8922C61.0709 13.376 60.4549 13.42 60.0442 13.508C59.6629 13.596 59.4722 13.7867 59.4722 14.08C59.4722 14.1387 59.5455 14.212 59.6922 14.3C59.8682 14.3587 59.9562 14.608 59.9562 15.048C59.9562 15.8107 59.7215 16.3973 59.2522 16.808C58.7829 17.1893 58.2255 17.38 57.5802 17.38C57.0229 17.38 56.5389 17.2187 56.1282 16.896C55.7469 16.544 55.5562 16.06 55.5562 15.444C55.5562 14.828 55.7615 14.168 56.1722 13.464C56.6122 12.76 57.2135 12.1733 57.9762 11.704C58.7682 11.2347 59.6629 11 60.6602 11H71.9682L61.1882 29.612C61.3642 29.612 61.6869 29.6413 62.1562 29.7C63.1535 29.8173 63.9455 29.876 64.5322 29.876C65.7935 29.876 66.4829 29.5827 66.6002 28.996C66.3362 28.9667 66.1309 28.8787 65.9842 28.732C65.8375 28.556 65.7642 28.336 65.7642 28.072C65.7642 27.6027 65.9842 27.1773 66.4242 26.796C66.8642 26.3853 67.4655 26.18 68.2282 26.18C68.8735 26.18 69.3575 26.3707 69.6802 26.752C70.0029 27.1333 70.1642 27.6467 70.1642 28.292C70.1642 28.996 69.9442 29.7147 69.5042 30.448C69.0642 31.1813 68.4335 31.7973 67.6122 32.296C66.7909 32.7653 65.8522 33 64.7962 33H53.1362L64.3562 13.376ZM76.9887 33.264C75.5807 33.264 74.3927 33 73.4247 32.472C72.4567 31.9147 71.738 31.2107 71.2687 30.36C70.7993 29.48 70.5647 28.5707 70.5647 27.632C70.5647 26.664 70.7993 25.828 71.2687 25.124C71.7087 24.3907 72.2513 23.8627 72.8967 23.54C74.0407 21.4867 75.038 19.4187 75.8887 17.336C76.7393 15.224 77.546 12.9507 78.3087 10.516L84.8207 9.636C84.9673 13.3907 85.2167 17.4533 85.5687 21.824C85.7153 23.584 85.7887 24.86 85.7887 25.652C85.7887 26.3267 85.73 26.884 85.6127 27.324C86.9913 26.532 88.0473 25.7987 88.7807 25.124H90.6287C88.7513 27.2947 86.5073 29.128 83.8967 30.624C83.046 31.5333 81.99 32.208 80.7287 32.648C79.4967 33.0587 78.25 33.264 76.9887 33.264ZM75.5807 29.788C76.666 29.788 77.5753 29.4653 78.3087 28.82C79.042 28.1747 79.4087 27.1333 79.4087 25.696C79.4087 24.816 79.3207 23.584 79.1447 22C78.8513 18.656 78.6607 16.412 78.5727 15.268C77.8687 17.5853 76.6807 20.3573 75.0087 23.584C75.6833 23.936 76.0207 24.4493 76.0207 25.124C76.0207 25.6813 75.83 26.18 75.4487 26.62C75.0967 27.06 74.642 27.28 74.0847 27.28C73.4687 27.28 73.0727 27.0893 72.8967 26.708C72.8967 27.764 73.102 28.5413 73.5127 29.04C73.9527 29.5387 74.642 29.788 75.5807 29.788ZM104.657 33.264C102.868 33.264 101.548 32.7947 100.697 31.856C99.8761 30.888 99.4654 29.7 99.4654 28.292C99.4654 27.676 99.5388 26.9867 99.6854 26.224C99.8321 25.432 99.9788 24.6693 100.125 23.936C100.301 23.2027 100.419 22.7333 100.477 22.528C100.712 21.5013 100.932 20.4893 101.137 19.492C101.343 18.4947 101.445 17.688 101.445 17.072C101.445 15.576 100.917 14.828 99.8614 14.828C99.0988 14.828 98.4241 15.2093 97.8374 15.972C97.2508 16.7053 96.7814 17.6733 96.4294 18.876L93.4374 33H87.1014L93.4814 3.08L99.9934 2.2L97.6174 13.288C99.0841 11.6453 100.8 10.824 102.765 10.824C104.261 10.824 105.449 11.2347 106.329 12.056C107.209 12.8773 107.649 14.124 107.649 15.796C107.649 16.6467 107.547 17.6 107.341 18.656C107.136 19.6827 106.843 20.944 106.461 22.44C106.227 23.3493 106.007 24.244 105.801 25.124C105.625 25.9747 105.537 26.6493 105.537 27.148C105.537 27.7347 105.669 28.1893 105.933 28.512C106.197 28.8347 106.652 28.996 107.297 28.996C108.177 28.996 108.881 28.688 109.409 28.072C109.937 27.4267 110.465 26.444 110.993 25.124H112.841C111.756 28.3507 110.495 30.5213 109.057 31.636C107.649 32.7213 106.183 33.264 104.657 33.264ZM117.412 33.176C115.242 33.176 113.526 32.6187 112.264 31.504C111.003 30.3893 110.372 28.6293 110.372 26.224C110.372 24.2293 110.783 22.0147 111.604 19.58C112.426 17.1453 113.746 15.048 115.564 13.288C117.383 11.4987 119.671 10.604 122.428 10.604C126.183 10.604 128.06 12.9507 128.06 17.644V17.688C128.148 17.7173 128.31 17.732 128.544 17.732C129.512 17.732 130.627 17.4827 131.888 16.984C133.15 16.456 134.294 15.8253 135.32 15.092L135.716 16.28C134.866 17.1893 133.751 17.9667 132.372 18.612C131.023 19.228 129.542 19.668 127.928 19.932C127.694 22.6013 127.092 24.9333 126.124 26.928C125.156 28.9227 123.91 30.4627 122.384 31.548C120.859 32.6333 119.202 33.176 117.412 33.176ZM119.172 29.216C119.876 29.216 120.58 28.82 121.284 28.028C121.988 27.2067 122.604 26.1067 123.132 24.728C123.66 23.32 124.042 21.7653 124.276 20.064C123.484 19.888 123.088 19.272 123.088 18.216C123.088 17.0133 123.543 16.2213 124.452 15.84C124.394 14.872 124.247 14.212 124.012 13.86C123.778 13.4787 123.367 13.288 122.78 13.288C121.812 13.288 120.874 13.992 119.964 15.4C119.055 16.808 118.322 18.4947 117.764 20.46C117.207 22.4253 116.928 24.156 116.928 25.652C116.928 27.06 117.09 28.0133 117.412 28.512C117.735 28.9813 118.322 29.216 119.172 29.216ZM133.668 9.372H140.004L139.3 12.672C140.767 11.4107 142.483 10.78 144.448 10.78C146.091 10.78 147.396 11.3227 148.364 12.408C149.332 13.4933 149.816 15.268 149.816 17.732C149.816 20.0493 149.479 22.396 148.804 24.772C148.13 27.1187 146.986 29.128 145.372 30.8C143.759 32.4427 141.632 33.264 138.992 33.264C137.115 33.264 135.868 32.736 135.252 31.68L132.964 42.416L126.32 44L133.668 9.372ZM137.628 29.436C139.036 29.436 140.195 28.776 141.104 27.456C142.043 26.136 142.718 24.5667 143.128 22.748C143.568 20.9 143.788 19.184 143.788 17.6C143.788 15.1653 143.055 13.948 141.588 13.948C141.06 13.948 140.518 14.1387 139.96 14.52C139.432 14.9013 138.963 15.4293 138.552 16.104L135.956 28.424C136.191 29.0987 136.748 29.436 137.628 29.436Z" fill="white"/>
</svg>
