<svg width="171" height="133" viewBox="0 0 171 133" fill="none" xmlns="http://www.w3.org/2000/svg">
<g clip-path="url(#clip0_1875_9295)">
<path d="M25.8903 78.6924C25.7804 78.5829 25.7071 78.4368 25.5972 78.3273C24.5347 76.9031 23.3989 75.552 22.2265 74.2375C22.2632 71.6083 22.1899 61.6759 19.5153 62.1871C17.0606 62.6618 20.2847 70.5128 21.6403 73.6167C21.1274 73.0689 20.5778 72.5212 20.0282 72.01C18.233 69.6729 12.1511 62.1871 10.3925 64.1955C8.74374 66.0944 15.9614 70.2207 19.1123 71.9369C19.6985 72.4847 20.2847 73.0689 20.8343 73.6532C17.7933 72.1195 10.1726 68.614 9.51314 71.024C8.78038 73.6167 18.7093 74.1644 21.4205 74.274C22.8127 75.7711 24.1317 77.3779 25.3774 79.0211C22.6295 77.3048 15.0821 72.7768 14.1662 75.1869C13.1769 77.743 23.289 79.2402 25.817 79.6053C27.136 81.4312 28.3817 83.33 29.4808 85.3019C26.8795 83.1109 20.358 77.9256 19.1123 80.0801C17.7933 82.4171 27.2826 85.3019 29.8839 86.0687C30.0671 86.3973 30.2502 86.726 30.4334 87.0546C31.3127 88.7344 32.1554 90.4506 32.8882 92.1669C30.5067 89.8664 24.205 84.0238 22.8127 86.1052C21.3106 88.3692 30.6899 91.9478 33.1813 92.8242C34.3171 95.4899 35.2696 98.1921 36.039 100.967C34.024 98.3381 28.6015 91.6922 26.9162 93.591C25.1209 95.6359 33.8774 100.456 36.2589 101.698C36.2955 101.807 36.3321 101.917 36.3688 102.063C36.6253 103.012 36.8451 103.962 37.0283 104.948C37.1015 105.313 37.6878 105.24 37.6145 104.875C37.4313 103.925 37.2481 102.976 36.9916 101.99C38.2007 99.5797 42.4141 90.7063 39.8128 90.0125C37.4313 89.3917 36.8817 97.5348 36.7352 101.04C36.2955 99.4701 35.7826 97.8999 35.233 96.3663C34.83 95.2708 34.427 94.1753 33.9873 93.1163C34.83 90.6332 37.7977 81.139 35.1231 80.8104C32.6684 80.5182 33.2912 88.8074 33.6209 92.2399C32.7416 90.2316 31.789 88.2232 30.7265 86.2878C31.386 83.7682 33.6942 74.0549 30.983 73.9088C28.455 73.7993 29.7373 82.198 30.3235 85.521C29.1877 83.4761 27.9054 81.5042 26.5498 79.5688C26.8429 76.8301 27.7222 67.1533 25.0476 67.4089C22.5196 67.555 24.7912 75.2964 25.8903 78.6924Z" fill="#EB725F"/>
<path d="M152.218 62.6619C152.291 62.5158 152.365 62.3697 152.401 62.2237C153.134 60.6169 153.793 58.9737 154.38 57.294C156.724 56.0524 165.444 51.2688 163.722 49.1509C162.11 47.2155 156.724 53.7884 154.673 56.4906C154.893 55.7603 155.149 55.03 155.332 54.3362C156.541 51.634 160.242 42.7605 157.604 42.1763C155.149 41.6285 154.929 49.9177 154.966 53.4963C154.746 54.2631 154.526 55.0665 154.27 55.8333C154.16 52.4373 153.61 44.1116 151.192 44.6594C148.554 45.2436 152.804 54.2266 154.013 56.6367C153.354 58.572 152.584 60.5074 151.705 62.3697C151.925 59.1563 152.291 50.3924 149.727 50.7211C147.015 51.0497 150.496 60.6535 151.412 63.027C150.423 65.0719 149.324 67.0438 148.151 68.9792C148.847 65.6562 150.313 57.44 147.821 57.4035C145.11 57.367 147.125 67.0438 147.711 69.7095C147.528 70.0381 147.308 70.3303 147.089 70.6589C146.026 72.2291 144.927 73.7628 143.755 75.2599C144.671 72.083 146.796 63.7573 144.268 63.5382C141.556 63.3191 142.912 73.215 143.278 75.8442C141.483 78.1082 139.541 80.2261 137.453 82.2345C138.808 79.2037 142.069 71.2797 139.615 70.7319C136.977 70.1112 136.903 80.1166 136.903 82.7823C136.83 82.8553 136.72 82.9649 136.647 83.0379C135.914 83.6952 135.218 84.389 134.449 84.9732C134.155 85.1923 134.522 85.667 134.815 85.448C135.584 84.8272 136.317 84.2064 137.05 83.5126C139.724 83.403 149.58 82.8553 148.957 80.2627C148.371 77.8891 140.933 81.2851 137.783 82.8188C138.955 81.6868 140.091 80.4818 141.19 79.2402C141.959 78.3638 142.729 77.4874 143.462 76.5745C146.026 76.0998 155.845 74.201 154.856 71.6814C153.94 69.3808 146.905 73.8723 144.048 75.8442C145.403 74.1279 146.722 72.3386 147.895 70.4763C150.423 69.8555 160.095 67.2264 158.923 64.7798C157.824 62.5158 151.009 67.6281 148.371 69.746C149.617 67.7741 150.789 65.7292 151.815 63.6113C154.38 62.5523 163.319 58.6816 161.817 56.4541C160.425 54.4457 154.673 60.1057 152.218 62.6619Z" fill="#EB725F"/>
<path d="M45.3086 70.2988C45.3086 70.2988 46.2612 68.2539 46.7741 65.5882C46.7009 64.7484 46.591 63.9085 46.4078 63.1416C46.2612 62.4478 46.1147 61.7905 45.9315 61.1333C45.4552 61.9731 44.8323 62.813 44.1728 63.3973C44.1728 63.3973 44.9422 61.7905 45.4552 59.5265C44.9422 57.9929 44.2828 56.5687 43.5134 55.2176C43.2569 56.021 42.9272 56.8609 42.4875 57.4816C42.4875 57.4816 42.744 56.021 42.744 53.9761C42.5974 53.757 42.4509 53.5014 42.3043 53.2823C41.4616 52.0407 40.4724 50.8722 39.4099 49.7767C39.3366 50.6896 39.1535 51.6755 38.8237 52.4424C38.8237 52.4424 38.8237 50.8722 38.4573 48.8273C37.3582 47.8413 36.1491 46.8919 34.8302 46.052C34.8668 46.9284 34.8302 47.8779 34.6103 48.6447C34.6103 48.6447 34.3905 47.2571 33.8043 45.4313C32.6319 44.7375 31.3496 44.1532 29.9573 43.6055C30.1039 44.3358 30.2138 45.1026 30.1772 45.7599C30.1772 45.7599 29.8108 44.7009 29.0414 43.2768C28.0155 42.9116 26.953 42.6195 25.8172 42.3639C24.6448 42.1083 23.3991 41.8892 21.9703 41.8162C21.5306 43.1673 21.2741 44.4088 21.091 45.5773C20.9078 46.7459 20.7979 47.8413 20.7979 48.9003C21.8604 50.1053 22.7397 50.8357 22.7397 50.8357C22.1168 50.6166 21.4207 50.2514 20.7979 49.8497C20.7979 51.3469 20.9078 52.771 21.1276 54.0856C22.6297 55.2907 23.8388 55.9845 23.8388 55.9845C23.0328 55.9114 22.1535 55.5828 21.3474 55.2541C21.6772 56.7878 22.0802 58.2485 22.6297 59.5996C24.425 60.6951 25.8905 61.2428 25.8905 61.2428C25.0479 61.2793 24.0586 61.0967 23.1793 60.8411C23.8388 62.2287 24.5716 63.5433 25.4509 64.8214C25.5974 65.0405 25.7806 65.2596 25.9272 65.4787C27.8323 66.209 29.2978 66.4646 29.2978 66.4646C28.5651 66.6472 27.6491 66.6472 26.8065 66.6107C27.7957 67.8157 28.8948 68.9477 30.1405 69.9702C32.4487 70.2988 34.2073 70.1528 34.2073 70.1528C33.4379 70.591 32.4121 70.8466 31.4595 70.9926C32.0091 71.3943 32.5953 71.796 33.1815 72.1612C33.841 72.6359 34.5737 73.0375 35.3065 73.4027C38.0177 73.9139 40.2526 73.7314 40.2526 73.7314C39.5931 74.0965 38.7138 74.3521 37.8711 74.4982C38.1276 74.5712 38.3474 74.6808 38.6039 74.7538C39.6297 75.119 40.7289 75.4111 41.9013 75.6667C43.0737 75.9223 44.2828 76.1414 45.7483 76.2145C46.1879 74.8634 46.4444 73.6218 46.591 72.4533C46.7741 71.2848 46.8474 70.1528 46.8841 69.0573C46.8841 68.8017 46.8841 68.546 46.8841 68.2904C46.4444 69.0938 45.8948 69.8241 45.3086 70.2988Z" fill="#6E7FDD"/>
<mask id="mask0_1875_9295" style="mask-type:luminance" maskUnits="userSpaceOnUse" x="20" y="41" width="27" height="36">
<path d="M45.3086 70.2988C45.3086 70.2988 46.2612 68.2539 46.7741 65.5882C46.7009 64.7484 46.591 63.9085 46.4078 63.1416C46.2612 62.4478 46.1147 61.7905 45.9315 61.1333C45.4552 61.9731 44.8323 62.813 44.1728 63.3973C44.1728 63.3973 44.9422 61.7905 45.4552 59.5265C44.9422 57.9929 44.2828 56.5687 43.5134 55.2176C43.2569 56.021 42.9272 56.8609 42.4875 57.4816C42.4875 57.4816 42.744 56.021 42.744 53.9761C42.5974 53.757 42.4509 53.5014 42.3043 53.2823C41.4616 52.0407 40.4724 50.8722 39.4099 49.7767C39.3366 50.6896 39.1535 51.6755 38.8237 52.4424C38.8237 52.4424 38.8237 50.8722 38.4573 48.8273C37.3582 47.8413 36.1491 46.8919 34.8302 46.052C34.8668 46.9284 34.8302 47.8779 34.6103 48.6447C34.6103 48.6447 34.3905 47.2571 33.8043 45.4313C32.6319 44.7375 31.3496 44.1532 29.9573 43.6055C30.1039 44.3358 30.2138 45.1026 30.1772 45.7599C30.1772 45.7599 29.8108 44.7009 29.0414 43.2768C28.0155 42.9116 26.953 42.6195 25.8172 42.3639C24.6448 42.1083 23.3991 41.8892 21.9703 41.8162C21.5306 43.1673 21.2741 44.4088 21.091 45.5773C20.9078 46.7459 20.7979 47.8413 20.7979 48.9003C21.8604 50.1053 22.7397 50.8357 22.7397 50.8357C22.1168 50.6166 21.4207 50.2514 20.7979 49.8497C20.7979 51.3469 20.9078 52.771 21.1276 54.0856C22.6297 55.2907 23.8388 55.9845 23.8388 55.9845C23.0328 55.9114 22.1535 55.5828 21.3474 55.2541C21.6772 56.7878 22.0802 58.2485 22.6297 59.5996C24.425 60.6951 25.8905 61.2428 25.8905 61.2428C25.0479 61.2793 24.0586 61.0967 23.1793 60.8411C23.8388 62.2287 24.5716 63.5433 25.4509 64.8214C25.5974 65.0405 25.7806 65.2596 25.9272 65.4787C27.8323 66.209 29.2978 66.4646 29.2978 66.4646C28.5651 66.6472 27.6491 66.6472 26.8065 66.6107C27.7957 67.8157 28.8948 68.9477 30.1405 69.9702C32.4487 70.2988 34.2073 70.1528 34.2073 70.1528C33.4379 70.591 32.4121 70.8466 31.4595 70.9926C32.0091 71.3943 32.5953 71.796 33.1815 72.1612C33.841 72.6359 34.5737 73.0375 35.3065 73.4027C38.0177 73.9139 40.2526 73.7314 40.2526 73.7314C39.5931 74.0965 38.7138 74.3521 37.8711 74.4982C38.1276 74.5712 38.3474 74.6808 38.6039 74.7538C39.6297 75.119 40.7289 75.4111 41.9013 75.6667C43.0737 75.9223 44.2828 76.1414 45.7483 76.2145C46.1879 74.8634 46.4444 73.6218 46.591 72.4533C46.7741 71.2848 46.8474 70.1528 46.8841 69.0573C46.8841 68.8017 46.8841 68.546 46.8841 68.2904C46.4444 69.0938 45.8948 69.8241 45.3086 70.2988Z" fill="white"/>
</mask>
<g mask="url(#mask0_1875_9295)">
<path d="M41.6815 50.2829L41.3151 50.2464C41.3151 50.3194 40.9854 56.7828 36.6621 62.808L33.4013 58.0974C37.8712 51.9261 37.2849 43.9656 37.2849 43.8925H36.9186C36.9186 43.9656 37.4681 51.6705 33.1449 57.7322L30.2505 53.5328C34.6836 47.3251 30.5069 38.5247 30.4336 38.4516L30.1039 38.5977C30.1405 38.6707 34.2074 47.1425 29.994 53.2042L26.8798 48.7127C28.5285 42.5414 24.2785 34.727 24.2418 34.6539L23.9121 34.8365C23.9487 34.9095 27.9789 42.3223 26.5867 48.311L20.2849 39.0724L19.9918 39.2915L26.3668 48.5666C20.2849 47.7267 14.7892 41.3364 14.716 41.2634L14.4229 41.519C14.4961 41.592 20.2483 48.311 26.6233 49.0048L29.7375 53.4963C22.5931 55.2491 16.1082 48.4206 16.0349 48.384L15.7785 48.6397C15.8517 48.7127 22.5565 55.7603 29.994 53.8615L32.8884 58.0608C25.6707 59.8867 18.6362 56.6367 18.5629 56.6002L18.4164 56.9288C18.4897 56.9654 25.7073 60.3248 33.1082 58.3895L36.369 63.1001C29.1513 64.9624 22.9961 62.954 22.9229 62.9175L22.8129 63.2827C22.8862 63.3192 29.2246 65.4006 36.5888 63.4287L39.0436 66.9708C31.8625 68.8696 26.5134 68.1028 26.4767 68.0663L26.4401 68.4315C26.4767 68.4315 31.9724 69.2348 39.3 67.2995L41.9746 71.1702C35.9293 72.7404 31.4961 72.1196 31.4229 72.0831L31.3862 72.4482C31.4229 72.4482 36.0393 73.1421 42.1944 71.4988L44.4293 74.7122C40.6556 75.7347 37.8712 75.333 37.8345 75.333L37.7979 75.6982C37.9078 75.6982 40.7289 76.0999 44.6492 75.0409L48.9725 81.3217L49.2656 81.1026L44.9423 74.8218C47.3604 71.5718 47.9832 68.7966 48.0199 68.6871L47.6535 68.5775C47.6535 68.614 46.994 71.3162 44.6858 74.4932L42.4509 71.2797C46.188 66.1309 47.2138 61.6029 47.2138 61.5664L46.8475 61.4569C46.8475 61.4934 45.8582 65.8753 42.1944 70.9511L39.5199 67.0804C43.9897 60.9456 45.1987 55.5777 45.1987 55.5412L44.8324 55.4317C44.8324 55.4682 43.6233 60.7265 39.3 66.7517L36.8453 63.2096C41.3518 57.0384 41.6815 50.3559 41.6815 50.2829Z" fill="#B3C9F9"/>
</g>
<path opacity="0.1" d="M42.7444 53.9344C42.5979 53.7153 42.4513 53.4597 42.3048 53.2406C41.4621 51.9991 40.4729 50.8306 39.4104 49.7351C39.3371 50.648 39.1539 51.6339 38.8242 52.4008C38.8242 52.4008 38.8242 50.8306 38.4578 48.7857C37.3586 47.7997 36.1496 46.8503 34.8306 46.0104C34.8673 46.8868 34.8306 47.8362 34.6108 48.6031C34.6108 48.6031 34.391 47.2155 33.8048 45.3896C32.6324 44.6958 31.35 44.1116 29.9578 43.5638C30.1043 44.2942 30.2142 45.061 30.1776 45.7183C30.1776 45.7183 29.8112 44.6593 29.0418 43.2352C28.016 42.87 26.9535 42.5779 25.8177 42.3223C24.6453 42.0667 23.3996 41.8476 21.9707 41.7745L45.7487 76.2458C46.1884 74.8947 46.4449 73.6532 46.5914 72.4847C46.7746 71.3162 46.8479 70.1841 46.8845 69.0887C46.8845 68.833 46.8845 68.5774 46.8845 68.3218C46.4449 69.0521 45.8953 69.7825 45.3091 70.2572C45.3091 70.2572 46.2617 68.2123 46.7746 65.5466C46.7013 64.7067 46.5914 63.8668 46.4082 63.1C46.2617 62.4062 46.1151 61.7489 45.9319 61.0916C45.4556 61.9315 44.8328 62.7714 44.1733 63.3556C44.1733 63.3556 44.9427 61.7489 45.4556 59.4849C44.9427 57.9512 44.2832 56.5271 43.5138 55.176C43.2574 55.9793 42.9276 56.8192 42.488 57.44C42.4513 57.44 42.7444 55.9428 42.7444 53.9344Z" fill="#0046A0"/>
<path d="M144.964 102.172C144.964 102.172 147.236 102.318 149.91 101.771C150.68 101.369 151.376 100.967 152.072 100.529C152.658 100.164 153.244 99.7623 153.794 99.3607C152.841 99.2146 151.815 98.959 151.046 98.5573C151.046 98.5573 152.841 98.6668 155.113 98.3382C156.358 97.2792 157.421 96.1472 158.41 94.9422C157.567 95.0152 156.652 95.0152 155.919 94.8326C155.919 94.8326 157.384 94.5405 159.289 93.8102C159.436 93.5911 159.619 93.372 159.766 93.1529C160.608 91.9113 161.341 90.5602 162.001 89.1726C161.121 89.4282 160.132 89.6108 159.289 89.6108C159.289 89.6108 160.755 89.0266 162.514 87.9311C163.063 86.5435 163.466 85.1193 163.759 83.5491C162.953 83.9143 162.037 84.2064 161.268 84.316C161.268 84.316 162.477 83.6222 163.979 82.4171C164.199 81.066 164.272 79.6419 164.272 78.1812C163.649 78.5829 162.953 78.9846 162.33 79.1672C162.33 79.1672 163.173 78.4368 164.236 77.1953C164.199 76.1363 164.089 75.0408 163.906 73.8723C163.723 72.7038 163.466 71.4622 162.99 70.1111C161.561 70.1842 160.315 70.4033 159.143 70.6954C158.007 70.951 156.908 71.2797 155.919 71.6448C155.186 73.069 154.82 74.1644 154.82 74.1644C154.783 73.5072 154.856 72.7403 155.039 72.01C153.647 72.5577 152.365 73.1785 151.192 73.8723C150.643 75.6981 150.423 77.0857 150.423 77.0857C150.203 76.3189 150.167 75.3695 150.203 74.4931C148.884 75.333 147.712 76.2824 146.613 77.3048C146.246 79.3863 146.246 80.92 146.246 80.92C145.917 80.1531 145.733 79.1672 145.623 78.2543C144.561 79.3498 143.608 80.5548 142.766 81.7963C142.619 82.0154 142.473 82.271 142.326 82.4901C142.363 84.4985 142.619 85.9957 142.619 85.9957C142.18 85.3749 141.85 84.5351 141.593 83.7317C140.824 85.0828 140.201 86.5435 139.688 88.0406C140.238 90.2681 141.007 91.8748 141.007 91.8748C140.311 91.3271 139.688 90.4507 139.212 89.6473C139.029 90.3046 138.882 90.9984 138.736 91.6922C138.589 92.4956 138.479 93.299 138.406 94.1388C138.919 96.841 139.908 98.8494 139.908 98.8494C139.322 98.3747 138.772 97.6444 138.296 96.9141C138.296 97.1697 138.296 97.4253 138.296 97.6809C138.333 98.7764 138.442 99.8719 138.626 101.077C138.809 102.245 139.065 103.487 139.505 104.838C140.934 104.765 142.18 104.509 143.315 104.254C144.488 103.998 145.55 103.67 146.576 103.304C146.833 103.231 147.052 103.122 147.309 103.049C146.503 102.793 145.623 102.538 144.964 102.172Z" fill="#6E7FDD"/>
<mask id="mask1_1875_9295" style="mask-type:luminance" maskUnits="userSpaceOnUse" x="138" y="70" width="27" height="35">
<path d="M144.964 102.172C144.964 102.172 147.236 102.318 149.91 101.771C150.68 101.369 151.376 100.967 152.072 100.529C152.658 100.164 153.244 99.7623 153.794 99.3607C152.841 99.2146 151.815 98.959 151.046 98.5573C151.046 98.5573 152.841 98.6668 155.113 98.3382C156.358 97.2792 157.421 96.1472 158.41 94.9422C157.567 95.0152 156.652 95.0152 155.919 94.8326C155.919 94.8326 157.384 94.5405 159.289 93.8102C159.436 93.5911 159.619 93.372 159.766 93.1529C160.608 91.9113 161.341 90.5602 162.001 89.1726C161.121 89.4282 160.132 89.6108 159.289 89.6108C159.289 89.6108 160.755 89.0266 162.514 87.9311C163.063 86.5435 163.466 85.1193 163.759 83.5491C162.953 83.9143 162.037 84.2064 161.268 84.316C161.268 84.316 162.477 83.6222 163.979 82.4171C164.199 81.066 164.272 79.6419 164.272 78.1812C163.649 78.5829 162.953 78.9846 162.33 79.1672C162.33 79.1672 163.173 78.4368 164.236 77.1953C164.199 76.1363 164.089 75.0408 163.906 73.8723C163.723 72.7038 163.466 71.4622 162.99 70.1111C161.561 70.1842 160.315 70.4033 159.143 70.6954C158.007 70.951 156.908 71.2797 155.919 71.6448C155.186 73.069 154.82 74.1644 154.82 74.1644C154.783 73.5072 154.856 72.7403 155.039 72.01C153.647 72.5577 152.365 73.1785 151.192 73.8723C150.643 75.6981 150.423 77.0857 150.423 77.0857C150.203 76.3189 150.167 75.3695 150.203 74.4931C148.884 75.333 147.712 76.2824 146.613 77.3048C146.246 79.3863 146.246 80.92 146.246 80.92C145.917 80.1531 145.733 79.1672 145.623 78.2543C144.561 79.3498 143.608 80.5548 142.766 81.7963C142.619 82.0154 142.473 82.271 142.326 82.4901C142.363 84.4985 142.619 85.9957 142.619 85.9957C142.18 85.3749 141.85 84.5351 141.593 83.7317C140.824 85.0828 140.201 86.5435 139.688 88.0406C140.238 90.2681 141.007 91.8748 141.007 91.8748C140.311 91.3271 139.688 90.4507 139.212 89.6473C139.029 90.3046 138.882 90.9984 138.736 91.6922C138.589 92.4956 138.479 93.299 138.406 94.1388C138.919 96.841 139.908 98.8494 139.908 98.8494C139.322 98.3747 138.772 97.6444 138.296 96.9141C138.296 97.1697 138.296 97.4253 138.296 97.6809C138.333 98.7764 138.442 99.8719 138.626 101.077C138.809 102.245 139.065 103.487 139.505 104.838C140.934 104.765 142.18 104.509 143.315 104.254C144.488 103.998 145.55 103.67 146.576 103.304C146.833 103.231 147.052 103.122 147.309 103.049C146.503 102.793 145.623 102.538 144.964 102.172Z" fill="white"/>
</mask>
<g mask="url(#mask1_1875_9295)">
<path d="M162.293 91.5096L162.183 91.1445C162.11 91.181 155.955 93.2259 148.737 91.4366L151.961 86.6895C159.362 88.5518 166.58 85.1193 166.653 85.0828L166.507 84.7541C166.433 84.7907 159.436 88.1136 152.218 86.3609L155.076 82.125C162.513 83.9508 169.181 76.8667 169.218 76.7936L168.961 76.538C168.888 76.611 162.477 83.4761 155.295 81.7963L158.373 77.2683C164.748 76.5015 170.464 69.746 170.537 69.673L170.244 69.4173C170.17 69.4904 164.748 75.9172 158.666 76.8301L164.968 67.5185L164.675 67.2994L158.373 76.611C156.944 70.6589 160.901 63.2096 160.938 63.1366L160.608 62.954C160.571 63.027 156.395 70.878 158.08 77.0127L155.002 81.5407C150.752 75.5521 154.746 67.0438 154.783 66.9708L154.453 66.8247C154.416 66.8977 150.276 75.7346 154.783 81.9059L151.925 86.1418C147.565 80.1166 148.041 72.4117 148.041 72.3386H147.675C147.675 72.4117 147.198 80.3722 151.705 86.5069L148.481 91.254C144.121 85.2654 143.718 78.802 143.718 78.729L143.352 78.7655C143.352 78.8385 143.755 85.4845 148.261 91.5827L145.843 95.1613C141.446 89.1726 140.201 83.9508 140.201 83.9143L139.834 84.0238C139.834 84.0603 141.117 89.4282 145.623 95.5264L142.985 99.4337C139.285 94.4309 138.259 90.049 138.259 90.0125L137.892 90.122C137.892 90.1585 138.955 94.6865 142.765 99.7988L140.567 103.049C138.259 99.9084 137.563 97.2062 137.563 97.1697L137.196 97.2792C137.233 97.3887 137.892 100.164 140.347 103.377L136.061 109.695L136.354 109.914L140.64 103.597C144.561 104.619 147.382 104.217 147.492 104.217L147.455 103.852C147.418 103.852 144.634 104.254 140.86 103.268L143.058 100.018C149.25 101.588 153.83 100.894 153.867 100.894L153.83 100.529C153.793 100.529 149.323 101.223 143.278 99.6893L145.916 95.782C153.28 97.6809 158.739 96.841 158.776 96.8045L158.739 96.4393C158.703 96.4393 153.354 97.2792 146.136 95.4534L148.554 91.8748C155.882 93.6641 162.22 91.5096 162.293 91.5096Z" fill="#B3C9F9"/>
</g>
<path opacity="0.1" d="M159.289 93.8101C159.436 93.591 159.619 93.372 159.766 93.1529C160.608 91.9113 161.341 90.5602 162.001 89.1726C161.121 89.4282 160.132 89.6108 159.289 89.6108C159.289 89.6108 160.755 89.0265 162.514 87.931C163.063 86.5434 163.466 85.1193 163.759 83.5491C162.953 83.9143 162.037 84.2064 161.268 84.3159C161.268 84.3159 162.477 83.6221 163.979 82.4171C164.199 81.066 164.272 79.6419 164.272 78.1812C163.649 78.5829 162.953 78.9846 162.33 79.1672C162.33 79.1672 163.173 78.4368 164.236 77.1953C164.199 76.1363 164.089 75.0408 163.906 73.8723C163.723 72.7038 163.466 71.4622 162.99 70.1111L139.505 104.802C140.934 104.728 142.179 104.473 143.315 104.217C144.488 103.962 145.55 103.633 146.576 103.268C146.832 103.195 147.052 103.085 147.309 103.012C146.466 102.866 145.587 102.611 144.927 102.245C144.927 102.245 147.199 102.391 149.873 101.844C150.643 101.442 151.339 101.04 152.035 100.602C152.621 100.237 153.207 99.8353 153.757 99.4336C152.804 99.2876 151.779 99.032 151.009 98.6303C151.009 98.6303 152.804 98.7398 155.076 98.4112C156.322 97.3522 157.384 96.2202 158.373 95.0152C157.531 95.0882 156.615 95.0882 155.882 94.9056C155.919 94.8326 157.384 94.5405 159.289 93.8101Z" fill="#0046A0"/>
<path d="M84.6574 132.663C131.136 132.663 168.815 129.868 168.815 126.419C168.815 122.97 131.136 120.175 84.6574 120.175C38.1786 120.175 0.5 122.97 0.5 126.419C0.5 129.868 38.1786 132.663 84.6574 132.663Z" fill="#EDF0FC"/>
<path d="M147.089 27.6428H40.2891V123.133H147.089V27.6428Z" fill="#E1E2FE"/>
<path d="M147.089 27.6428H40.2891V38.9263H147.089V27.6428Z" fill="#D0DBF7"/>
<path d="M48.9356 33.3028C48.9356 34.5078 47.9464 35.4572 46.7739 35.4572C45.5649 35.4572 44.6123 34.4713 44.6123 33.3028C44.6123 32.0977 45.6015 31.1483 46.7739 31.1483C47.9464 31.1118 48.9356 32.0977 48.9356 33.3028Z" fill="#EB725F"/>
<path d="M56.2627 33.3028C56.2627 34.5078 55.2735 35.4572 54.1011 35.4572C52.9287 35.4572 51.9395 34.4713 51.9395 33.3028C51.9395 32.0977 52.9287 31.1483 54.1011 31.1483C55.2735 31.1483 56.2627 32.0977 56.2627 33.3028Z" fill="#F9AB43"/>
<path d="M63.5908 33.3028C63.5908 34.5078 62.6016 35.4572 61.4292 35.4572C60.2568 35.4572 59.2676 34.4713 59.2676 33.3028C59.2676 32.0977 60.2568 31.1483 61.4292 31.1483C62.6016 31.1483 63.5908 32.0977 63.5908 33.3028Z" fill="#6E7FDD"/>
<path d="M131.444 71.5352C131.957 70.2571 131.224 69.1982 129.832 69.1982H78.4286C77.0363 69.1982 75.4609 70.2571 74.948 71.5352L63.5536 100.346C63.0407 101.625 63.7734 102.683 65.1656 102.683H116.569C117.961 102.683 119.536 101.625 120.049 100.346L131.444 71.5352Z" fill="#FFCF74"/>
<path d="M61.099 97.8999L72.4934 69.0886C73.0064 67.8106 74.5818 66.7516 75.974 66.7516H116.312V64.1955C116.312 62.8078 115.177 61.6758 113.784 61.6758H95.7952C94.4029 61.6758 92.7176 60.6899 92.0581 59.4484L89.6034 54.9569C88.9439 53.7518 87.2585 52.7294 85.8663 52.7294H62.7477C61.3555 52.7294 60.2197 53.8614 60.2197 55.249V97.7174C60.2197 98.9224 61.099 99.9814 62.2715 100.2C61.1723 99.9814 60.6594 99.0319 61.099 97.8999Z" fill="#FFCF74"/>
<path d="M98.4702 77.1588C93.1944 77.1588 88.8711 81.4312 88.8711 86.726C88.8711 91.9843 93.1577 96.2933 98.4702 96.2933C103.746 96.2933 108.069 92.0209 108.069 86.726C108.033 81.4312 103.746 77.1588 98.4702 77.1588ZM103.16 90.0125L101.768 91.4001L98.4702 88.1136L95.1728 91.4001L93.7806 90.0125L97.078 86.726L93.7806 83.4395L95.1728 82.0519L98.4702 85.3384L101.768 82.0519L103.16 83.4395L99.8625 86.726L103.16 90.0125Z" fill="#EB725F"/>
<path d="M38.7496 127.989C54.1076 127.989 66.5577 125.962 66.5577 123.461C66.5577 120.96 54.1076 118.933 38.7496 118.933C23.3915 118.933 10.9414 120.96 10.9414 123.461C10.9414 125.962 23.3915 127.989 38.7496 127.989Z" fill="#EB725F"/>
<path d="M46.5532 66.6421H38.7493H30.9455L18.9648 122.512C28.9304 124.666 38.786 124.666 38.786 124.666C38.786 124.666 48.6416 124.666 58.6071 122.512L46.5532 66.6421Z" fill="#FFCF74"/>
<path d="M38.7492 67.8106C43.0592 67.8106 46.5531 67.2874 46.5531 66.6421C46.5531 65.9967 43.0592 65.4736 38.7492 65.4736C34.4392 65.4736 30.9453 65.9967 30.9453 66.6421C30.9453 67.2874 34.4392 67.8106 38.7492 67.8106Z" fill="#EB725F"/>
<mask id="mask2_1875_9295" style="mask-type:luminance" maskUnits="userSpaceOnUse" x="18" y="66" width="41" height="59">
<path d="M46.5532 66.6421H38.7493H30.9455L18.9648 122.512C28.9304 124.666 38.786 124.666 38.786 124.666C38.786 124.666 48.6416 124.666 58.6071 122.512L46.5532 66.6421Z" fill="white"/>
</mask>
<g mask="url(#mask2_1875_9295)">
<path d="M38.4199 120.029C22.3359 120.029 11.491 117.363 10.7949 117.18L13.0298 108.417L11.8941 112.799L12.9932 108.417C13.213 108.49 36.4048 114.15 64.6893 108.38L66.5212 117.254C56.2259 119.335 46.6268 120.029 38.4199 120.029Z" fill="#F9AB43"/>
<path d="M38.4199 100.31C22.3359 100.31 11.491 97.6444 10.7949 97.4618L13.0298 88.6979L11.8941 93.0798L12.9932 88.6979C13.213 88.7709 36.4048 94.4309 64.6893 88.6614L66.5212 97.5348C56.2259 99.6162 46.6268 100.31 38.4199 100.31Z" fill="#F9AB43"/>
<path d="M38.4199 80.6278C22.3359 80.6278 11.491 77.9621 10.7949 77.7795L13.0298 69.0156L11.8941 73.3976L12.9932 69.0156C13.213 69.0887 36.4048 74.7487 64.6893 68.9791L66.5212 77.8526C56.2259 79.8975 46.6268 80.6278 38.4199 80.6278Z" fill="#F9AB43"/>
</g>
<path opacity="0.1" d="M48.4952 93.5911C48.4952 105.751 45.9672 116.706 41.9004 124.557C45.6008 124.374 52.0491 123.9 58.534 122.512L46.5534 66.6421H43.7689C46.7366 74.0184 48.4952 83.3665 48.4952 93.5911Z" fill="#0046A0"/>
<g opacity="0.3">
<path d="M31.7885 75.2599C31.4954 76.6476 31.2023 77.9987 30.9459 79.3863C30.2497 82.6727 29.5903 85.9957 28.8941 89.2822C28.0515 93.299 27.2088 97.3157 26.4028 101.296C25.67 104.729 24.9739 108.198 24.2411 111.63C23.9114 113.31 23.4717 114.99 23.1786 116.669C23.1786 116.706 23.1786 116.706 23.1786 116.742C22.8855 118.13 25.0472 118.532 25.3403 117.144C25.6334 115.756 25.9265 114.405 26.1829 113.018C26.879 109.731 27.5385 106.408 28.2347 103.122C29.0773 99.105 29.92 95.0883 30.726 91.108C31.4588 87.6755 32.1549 84.2064 32.8877 80.7739C33.2174 79.0941 33.6571 77.4144 33.9502 75.7346C33.9502 75.6981 33.9502 75.6981 33.9502 75.6616C34.2066 74.274 32.0816 73.8723 31.7885 75.2599Z" fill="white"/>
</g>
<path d="M141.31 108.131L89.5205 122.866L90.4256 126.026L142.215 111.291L141.31 108.131Z" fill="#6E7FDD"/>
<path d="M141.331 108.155L117.691 114.881L118.597 118.041L142.237 111.315L141.331 108.155Z" fill="#EB725F"/>
<path d="M143.182 126.213C152.315 125.439 159.09 117.433 158.314 108.33C157.538 99.2271 149.504 92.4748 140.371 93.2483C131.238 94.0218 124.463 102.028 125.239 111.131C126.015 120.234 134.048 126.986 143.182 126.213Z" fill="#EB725F"/>
<path d="M153.98 115.138C156.979 108.433 153.956 100.574 147.229 97.5852C140.501 94.596 132.616 97.6083 129.617 104.314C126.618 111.019 129.64 118.878 136.368 121.867C143.095 124.856 150.98 121.844 153.98 115.138Z" fill="#D0DBF7"/>
<path d="M151.816 106.883L150.241 107.321C148.922 102.684 144.049 99.9813 139.396 101.296L138.956 99.7257C144.452 98.1555 150.241 101.369 151.816 106.883Z" fill="white"/>
<path d="M129.429 27.0584L113.564 22.2383L104.002 53.6422L128.659 61.0915L135.62 38.2324L129.429 27.0584Z" fill="#E2E6FF"/>
<path d="M127.817 39.4374L126.681 37.3195L121.588 40.0582L118.877 34.9824L116.752 36.1144L119.5 41.1902L114.407 43.8924L115.543 46.0103L120.599 43.3081L123.347 48.3474L125.472 47.2154L122.724 42.1761L127.817 39.4374Z" fill="#CAD2F9"/>
<path d="M87.2955 5.55042L71.1748 9.49417L78.9787 41.3363L104.002 35.2381L98.3235 12.0503L87.2955 5.55042Z" fill="#E2E6FF"/>
<path d="M92.2415 17.053L90.1898 15.8114L87.1854 20.7046L82.276 17.7468L81.0303 19.7917L85.9398 22.7495L82.9721 27.6792L85.0238 28.9207L87.9915 24.0276L92.9376 26.9854L94.1833 24.9405L89.2372 21.9826L92.2415 17.053Z" fill="#CAD2F9"/>
<path d="M143.754 8.43527H139.687V4.34546H138.222V8.43527H134.118V9.89592H138.222V13.9857H139.687V9.89592H143.754V8.43527Z" fill="#E2E6FF"/>
<path d="M152.951 22.494H150.716V20.2665H149.91V22.494H147.675V23.2608H149.91V25.4883H150.716V23.2608H152.951V22.494Z" fill="#E2E6FF"/>
<path d="M128.33 18.5868H125.619V15.9211H124.666V18.5868H121.955V19.5728H124.666V22.2384H125.619V19.5728H128.33V18.5868Z" fill="#E2E6FF"/>
<path d="M26.0367 18.1851H21.9332V14.0953H20.4677V18.1851H16.3643V19.6458H20.4677V23.7356H21.9332V19.6458H26.0367V18.1851Z" fill="#E2E6FF"/>
<path d="M43.9155 15.7385H41.6806V13.511H40.8746V15.7385H38.6396V16.5418H40.8746V18.7693H41.6806V16.5418H43.9155V15.7385Z" fill="#E2E6FF"/>
<path d="M30.3232 33.887H27.612V31.1848H26.6595V33.887H23.9482V34.8364H26.6595V37.5386H27.612V34.8364H30.3232V33.887Z" fill="#E2E6FF"/>
<path d="M120.013 1.67973C120.013 2.15444 119.61 2.55612 119.133 2.55612C118.657 2.55612 118.254 2.15444 118.254 1.67973C118.254 1.20502 118.657 0.803345 119.133 0.803345C119.646 0.803345 120.013 1.20502 120.013 1.67973Z" fill="#CAD2F9"/>
<path d="M160.131 33.4854C160.131 34.3983 159.362 35.1652 158.446 35.1652C157.53 35.1652 156.761 34.3983 156.761 33.4854C156.761 32.5725 157.53 31.8057 158.446 31.8057C159.362 31.8057 160.131 32.5725 160.131 33.4854Z" fill="#CAD2F9"/>
<path d="M106.896 10.9184C106.896 11.3931 106.493 11.7948 106.017 11.7948C105.541 11.7948 105.138 11.3931 105.138 10.9184C105.138 10.4437 105.541 10.042 106.017 10.042C106.493 10.0055 106.896 10.4071 106.896 10.9184Z" fill="#CAD2F9"/>
<path d="M56.3365 1.67975C56.3365 2.59265 55.5671 3.35949 54.6512 3.35949C53.7352 3.35949 52.9658 2.59265 52.9658 1.67975C52.9658 0.76684 53.7352 0 54.6512 0C55.5671 0 56.3365 0.76684 56.3365 1.67975Z" fill="#CAD2F9"/>
<path d="M62.8573 19.4632C62.8573 19.9379 62.4542 20.3396 61.9779 20.3396C61.5017 20.3396 61.0986 19.9379 61.0986 19.4632C61.0986 18.9885 61.5017 18.5868 61.9779 18.5868C62.4542 18.5503 62.8573 18.9519 62.8573 19.4632Z" fill="#CAD2F9"/>
<path d="M10.9783 36.5892C10.9783 37.0639 10.5753 37.4655 10.099 37.4655C9.62274 37.4655 9.21973 37.0639 9.21973 36.5892C9.21973 36.1144 9.62274 35.7128 10.099 35.7128C10.5753 35.7128 10.9783 36.1144 10.9783 36.5892Z" fill="#CAD2F9"/>
</g>
<defs>
<clipPath id="clip0_1875_9295">
<rect width="170" height="132.663" fill="white" transform="translate(0.5)"/>
</clipPath>
</defs>
</svg>
